<?xml version="1.0" encoding="UTF-8" standalone="no"?>
<!-- Created with Inkscape (http://www.inkscape.org/) -->

<svg
   width="32"
   height="32"
   xmlns="http://www.w3.org/2000/svg"
   xmlns:svg="http://www.w3.org/2000/svg">
  <defs
     id="defs5455">
    <linearGradient
       inkscape:collect="always"
       id="linearGradient4742">
      <stop
         style="stop-color:#292c2f;stop-opacity:1"
         offset="0"
         id="stop4738" />
      <stop
         style="stop-color:#000000;stop-opacity:0;"
         offset="1"
         id="stop4740" />
    </linearGradient>
    <linearGradient
       inkscape:collect="always"
       id="linearGradient4227">
      <stop
         style="stop-color:#292c2f;stop-opacity:1"
         offset="0"
         id="stop4229" />
      <stop
         style="stop-color:#000000;stop-opacity:0;"
         offset="1"
         id="stop4231" />
    </linearGradient>
    <linearGradient
       inkscape:collect="always"
       xlink:href="#linearGradient4214"
       id="linearGradient4165"
       x1="409.57144"
       y1="543.79797"
       x2="409.57144"
       y2="503.798"
       gradientUnits="userSpaceOnUse"
       gradientTransform="translate(-1.7372437e-5,0)" />
    <linearGradient
       inkscape:collect="always"
       xlink:href="#linearGradient4227"
       id="linearGradient4233"
       x1="403.57144"
       y1="523.79791"
       x2="416.57147"
       y2="536.79797"
       gradientUnits="userSpaceOnUse" />
    <linearGradient
       id="linearGradient4214"
       inkscape:collect="always">
      <stop
         id="stop4216"
         offset="0"
         style="stop-color:#2f74c8;stop-opacity:1" />
      <stop
         id="stop4218"
         offset="1"
         style="stop-color:#4699d7;stop-opacity:1" />
    </linearGradient>
    <linearGradient
       id="linearGradient4159"
       inkscape:collect="always">
      <stop
         id="stop4161"
         offset="0"
         style="stop-color:#2a2c2f;stop-opacity:1" />
      <stop
         id="stop4163"
         offset="1"
         style="stop-color:#424649;stop-opacity:1" />
    </linearGradient>
    <linearGradient
       inkscape:collect="always"
       xlink:href="#linearGradient4159"
       id="linearGradient4312"
       gradientUnits="userSpaceOnUse"
       x1="25"
       y1="33.999973"
       x2="25"
       y2="13.999974" />
    <linearGradient
       inkscape:collect="always"
       xlink:href="#linearGradient4742"
       id="linearGradient3039"
       gradientUnits="userSpaceOnUse"
       x1="403.57144"
       y1="523.79791"
       x2="416.57147"
       y2="536.79797"
       gradientTransform="matrix(1.4921513,0,0,1.4921513,-203.42858,-265.9484)" />
  </defs>
  <sodipodi:namedview
     id="base"
     pagecolor="#ffffff"
     bordercolor="#666666"
     borderopacity="1.0"
     inkscape:pageopacity="0"
     inkscape:pageshadow="2"
     inkscape:zoom="31.110691"
     inkscape:cx="16.31272"
     inkscape:cy="12.664457"
     inkscape:document-units="px"
     inkscape:current-layer="svg5453"
     showgrid="true"
     fit-margin-top="0"
     fit-margin-left="0"
     fit-margin-right="0"
     fit-margin-bottom="0"
     inkscape:window-width="1920"
     inkscape:window-height="969"
     inkscape:window-x="0"
     inkscape:window-y="1117"
     inkscape:window-maximized="1"
     inkscape:showpageshadow="false"
     borderlayer="true"
     showguides="true"
     inkscape:pagecheckerboard="1"
     inkscape:deskcolor="#d1d1d1">
    <inkscape:grid
       type="xygrid"
       id="grid4063"
       empspacing="5"
       visible="true"
       enabled="true"
       snapvisiblegridlinesonly="true" />
    <sodipodi:guide
       position="1.1650391e-05,47.999996"
       orientation="4,0"
       id="guide4146"
       inkscape:locked="false" />
    <sodipodi:guide
       position="1.1650391e-05,43.999996"
       orientation="0,48"
       id="guide4148"
       inkscape:locked="false" />
    <sodipodi:guide
       position="48.000012,43.999996"
       orientation="-4,0"
       id="guide4150"
       inkscape:locked="false" />
    <sodipodi:guide
       position="48.000012,47.999996"
       orientation="0,-48"
       id="guide4152"
       inkscape:locked="false" />
    <sodipodi:guide
       position="1.1650391e-05,4.0000264"
       orientation="4,0"
       id="guide4154"
       inkscape:locked="false" />
    <sodipodi:guide
       position="1.1650391e-05,2.6367188e-05"
       orientation="0,48"
       id="guide4156"
       inkscape:locked="false" />
    <sodipodi:guide
       position="48.000012,2.6367188e-05"
       orientation="-4,0"
       id="guide4158"
       inkscape:locked="false" />
    <sodipodi:guide
       position="48.000012,4.0000264"
       orientation="0,-48"
       id="guide4160"
       inkscape:locked="false" />
    <sodipodi:guide
       position="48.000012,48.000026"
       orientation="0,-4"
       id="guide4162"
       inkscape:locked="false" />
    <sodipodi:guide
       position="44.000012,48.000026"
       orientation="48,0"
       id="guide4164"
       inkscape:locked="false" />
    <sodipodi:guide
       position="44.000012,2.6367188e-05"
       orientation="0,4"
       id="guide4166"
       inkscape:locked="false" />
    <sodipodi:guide
       position="48.000012,2.6367188e-05"
       orientation="-48,0"
       id="guide4168"
       inkscape:locked="false" />
    <sodipodi:guide
       position="4.0000422,48.000026"
       orientation="0,-4"
       id="guide4170"
       inkscape:locked="false" />
    <sodipodi:guide
       position="4.2167969e-05,48.000026"
       orientation="48,0"
       id="guide4172"
       inkscape:locked="false" />
    <sodipodi:guide
       position="4.2167969e-05,2.6367188e-05"
       orientation="0,4"
       id="guide4174"
       inkscape:locked="false" />
    <sodipodi:guide
       position="4.0000422,2.6367188e-05"
       orientation="-48,0"
       id="guide4176"
       inkscape:locked="false" />
    <sodipodi:guide
       position="14.000012,34.000026"
       orientation="20,0"
       id="guide4173"
       inkscape:locked="false" />
    <sodipodi:guide
       position="14.000012,14.000026"
       orientation="0,20"
       id="guide4175"
       inkscape:locked="false" />
    <sodipodi:guide
       position="34.000012,14.000026"
       orientation="-20,0"
       id="guide4177"
       inkscape:locked="false" />
    <sodipodi:guide
       position="34.000012,34.000026"
       orientation="0,-20"
       id="guide4179"
       inkscape:locked="false" />
    <sodipodi:guide
       position="27.585452,24.000226"
       orientation="8.5856893,-8.5856893"
       id="guide4198"
       inkscape:locked="false" />
    <sodipodi:guide
       position="18.999763,15.414537"
       orientation="1.4142136,1.4142136"
       id="guide4200"
       inkscape:locked="false" />
    <sodipodi:guide
       position="20.413976,14.000323"
       orientation="-8.5856893,8.5856893"
       id="guide4202"
       inkscape:locked="false" />
    <sodipodi:guide
       position="28.999666,22.586012"
       orientation="-1.4142136,-1.4142136"
       id="guide4204"
       inkscape:locked="false" />
    <sodipodi:guide
       position="27.585549,24.000237"
       orientation="-8.5857109,-8.5857109"
       id="guide4206"
       inkscape:locked="false" />
    <sodipodi:guide
       position="18.999838,32.585948"
       orientation="-1.4142136,1.4142136"
       id="guide4208"
       inkscape:locked="false" />
    <sodipodi:guide
       position="20.414052,34.000161"
       orientation="8.5857109,8.5857109"
       id="guide4210"
       inkscape:locked="false" />
    <sodipodi:guide
       position="28.999763,25.41445"
       orientation="1.4142136,-1.4142136"
       id="guide4212"
       inkscape:locked="false" />
  </sodipodi:namedview>
  <metadata
     id="metadata5458">
    <rdf:RDF>
      <cc:Work
         rdf:about="">
        <dc:format>image/svg+xml</dc:format>
        <dc:type
           rdf:resource="http://purl.org/dc/dcmitype/StillImage" />
        <dc:title />
      </cc:Work>
    </rdf:RDF>
  </metadata>
  <g
     id="background"
     transform="matrix(0.69999947,0,0,0.70000053,-269.99978,-350.65887)">
    <rect
       ry="0"
       y="503.798"
       x="388.57141"
       height="39.999969"
       width="40.000011"
       id="rect4146"
       style="fill:#393a59;fill-opacity:1;stroke:none" />
    <rect
       y="542.79797"
       x="388.57147"
       height="0.99997365"
       width="39.999969"
       id="rect4167"
       style="fill:#d863bb;fill-opacity:1;stroke:none" />
    <path
       inkscape:connector-curvature="0"
       id="path4225"
       d="m 400.87139,530.55896 14.30332,14.30332 h 20.89011 v -8.95277 l -20.27247,-20.27248 z"
       style="opacity:0.4;fill:url(#linearGradient3039);fill-opacity:1;fill-rule:evenodd;stroke:none;stroke-width:1.49215" />
  </g>
  <g
     id="logo"
     transform="matrix(0.03,0,0,0.03,8.32,8.32)">
    <circle
       style="fill:#393a59"
       cx="256"
       cy="256"
       r="256"
       id="circle2" />
    <path
       style="fill:#6a6577"
       d="m 469.953,214.521 c 0,60.932 -25.4,115.928 -66.194,154.979 -13.511,12.941 -28.719,24.123 -45.25,33.193 -30.584,16.794 -65.722,26.346 -103.074,26.346 -37.353,0 -72.472,-9.544 -103.057,-26.338 -4.93,-2.697 -9.736,-5.586 -14.412,-8.659 C 126.934,386.819 116.61,378.588 107.119,369.499 66.325,330.456 40.915,275.452 40.915,214.52 40.915,96.044 136.959,0 255.435,0 373.911,0 469.953,96.045 469.953,214.521 Z"
       id="path4" />
    <g
       id="g12">
	<path
   style="fill:#393a59"
   d="m 186.159,233.576 c -11.975,2.226 -22.413,10.7 -26.582,23.071 -1.526,4.545 -2.058,9.185 -1.703,13.688 0.115,1.609 0.355,3.197 0.69,4.765 -0.533,-0.063 -1.066,-0.104 -1.599,-0.136 -0.46,-0.021 -0.92,-0.042 -1.369,-0.052 -11.588,-0.303 -22.747,4.232 -30.845,12.288 -2.675,2.675 -5.026,5.726 -6.928,9.122 -1.285,2.278 -2.382,4.723 -3.239,7.293 -3.877,11.536 -2.487,23.573 2.884,33.489 l -0.46,0.23 c -4.671,-10.271 -13.406,-18.651 -24.952,-22.528 -18.422,-6.186 -38.118,1.076 -48.431,16.488 -0.293,0.449 -0.585,0.899 -0.867,1.358 -3.939,-4.618 -9.143,-8.255 -15.308,-10.334 -6.363,-2.132 -12.915,-2.32 -19.007,-0.888 -1.254,-4.733 -2.361,-9.509 -3.344,-14.346 l 20.292,-37.71 7.659,7.774 c 9.446,9.592 23.97,12.027 36.018,6.029 l -10.031,-20.187 6.165,1.4 c 10.397,2.382 21.023,-2.905 25.412,-12.622 l 2.601,-5.768 10.031,20.198 c 8.923,-4.441 14.984,-12.737 16.739,-22.152 0.616,-3.302 0.711,-6.75 0.199,-10.209 l -1.567,-10.804 4.765,0.742 z"
   id="path6" />

	<path
   style="fill:#393a59"
   d="m 472.886,320.262 c -0.629,2.775 -4.416,3.193 -5.62,0.615 -3.543,-7.577 -9.82,-13.9 -18.16,-17.353 -4.432,-1.834 -9.025,-2.681 -13.538,-2.636 -1.616,0.008 -3.216,0.136 -4.798,0.371 0.092,-0.531 0.168,-1.06 0.237,-1.592 0.057,-0.456 0.11,-0.91 0.153,-1.36 1.089,-11.544 -2.679,-22.988 -10.172,-31.607 -2.476,-2.858 -5.366,-5.402 -8.626,-7.536 -2.189,-1.44 -4.548,-2.694 -7.058,-3.731 -11.247,-4.649 -23.343,-4.074 -33.604,0.609 l -0.2,-0.481 c 10.563,-3.955 19.516,-12.106 24.168,-23.356 7.429,-17.961 1.525,-38.105 -13.153,-49.44 -0.425,-0.327 -0.854,-0.647 -1.295,-0.957 4.873,-3.62 8.86,-8.562 11.351,-14.574 3.448,-8.342 3.405,-17.252 0.545,-25.112 -0.973,-2.675 1.997,-5.059 4.406,-3.544 l 44.58,28.043 c 1.706,1.074 1.886,3.493 0.356,4.807 l -5.199,4.466 c -9.359,8.034 -13.009,20.741 -9.585,32.374 0.505,1.717 2.381,2.626 4.034,1.94 l 12.074,-5.008 c 2.334,-0.969 4.744,1.211 4.016,3.63 l -0.002,0.007 c -3.075,10.212 1.472,21.174 10.872,26.211 v 0 c 2.229,1.192 2.069,4.439 -0.265,5.407 l -12.071,5.007 c -1.657,0.688 -2.33,2.662 -1.469,4.237 4.169,7.62 11.288,13.059 19.507,15.177 3.256,0.844 6.688,1.165 10.173,0.897 l 6.836,-0.526 c 2.009,-0.155 3.596,1.68 3.15,3.647 l -0.169,0.746 z"
   id="path8" />

	<path
   style="fill:#393a59"
   d="m 211.197,32.54 c 2.603,1.15 2.286,4.947 -0.475,5.634 -8.116,2.023 -15.527,6.968 -20.518,14.49 -2.65,3.998 -4.363,8.342 -5.187,12.779 -0.302,1.588 -0.485,3.183 -0.558,4.78 -0.503,-0.192 -1.008,-0.368 -1.517,-0.538 -0.437,-0.143 -0.872,-0.282 -1.305,-0.411 -11.12,-3.285 -23.074,-1.786 -32.972,3.913 -3.28,1.882 -6.332,4.229 -9.052,7.018 -1.833,1.872 -3.517,3.947 -5.018,6.21 -6.722,10.145 -8.481,22.127 -5.856,33.095 l -0.51,0.103 C 126.376,108.488 120.096,98.136 109.95,91.409 93.751,80.67 72.847,82.596 58.904,94.824 58.502,95.179 58.105,95.538 57.716,95.911 55.1,90.433 51.015,85.572 45.592,81.973 38.068,76.988 29.315,75.318 21.052,76.615 18.24,77.056 16.47,73.683 18.42,71.61 L 54.502,33.248 c 1.381,-1.469 3.79,-1.181 4.786,0.573 l 3.384,5.96 c 6.088,10.728 17.857,16.75 29.931,15.623 1.782,-0.166 3.034,-1.833 2.679,-3.586 L 92.685,39.007 c -0.502,-2.476 2.099,-4.423 4.334,-3.243 l 0.007,0.004 c 9.431,4.979 21.063,2.622 27.811,-5.636 v 0 c 1.598,-1.958 4.753,-1.179 5.256,1.299 l 2.596,12.807 c 0.356,1.759 2.165,2.798 3.876,2.256 8.28,-2.628 14.984,-8.57 18.64,-16.23 1.453,-3.033 2.428,-6.34 2.834,-9.812 l 0.797,-6.81 c 0.234,-2.002 2.34,-3.206 4.184,-2.392 l 0.7,0.309 z"
   id="path10" />

</g>
    <path
       style="fill:#282942"
       d="m 432.995,440.947 c -16.123,15.444 -34.273,28.787 -54,39.612 C 342.497,500.6 300.565,512 255.99,512 211.415,512 169.504,500.611 133.006,480.569 113.278,469.754 95.128,456.401 78.995,440.946 95.369,399.38 135.19,369.621 182.168,367.949 c 1.379,-0.063 2.779,-0.094 4.18,-0.094 h 139.295 c 1.4,0 2.8,0.031 4.18,0.094 46.978,1.673 86.799,31.432 103.172,72.998 z"
       id="path14" />
    <path
       style="fill:#d863bb"
       d="m 255.99,448.637 c 0,0 177.292,-128.708 170.921,-140.293 -9.517,-17.313 -23.649,-29.124 -37.607,-37.138 -23.432,-13.446 -46.411,-16.174 -46.411,-16.174 L 201.766,374.811 Z"
       id="path16" />
    <path
       style="fill:#282942"
       d="m 255.99,448.637 c 0,0 177.292,-128.708 170.921,-140.293 -9.517,-17.313 -23.649,-29.124 -37.607,-37.138 14.271,15.792 27.977,39.815 6.892,60.89 -3.406,3.406 -7.154,5.713 -11.146,7.101 -13.939,4.847 -26.906,12.126 -37.591,22.305 z"
       id="path18" />
    <path
       style="fill:#d863bb"
       d="m 255.99,448.637 c 0,0 -177.292,-128.708 -170.921,-140.293 9.517,-17.313 23.649,-29.124 37.607,-37.138 23.432,-13.446 46.411,-16.174 46.411,-16.174 z"
       id="path20" />
    <g
       id="g28">
	<path
   style="fill:#cccccc"
   d="m 402.659,149.703 -48.834,28.801 v 58.586 c 0,13.485 10.932,24.417 24.417,24.417 v 0 c 13.485,0 24.417,-10.932 24.417,-24.417 z"
   id="path22" />

	<path
   style="fill:#cccccc"
   d="m 109.318,149.703 48.834,28.801 v 58.586 c 0,13.485 -10.932,24.417 -24.417,24.417 v 0 c -13.485,0 -24.417,-10.932 -24.417,-24.417 z"
   id="path24" />

	<path
   style="fill:#cccccc"
   d="m 310.221,308.199 v 58.253 c 0,29.949 -24.278,54.227 -54.227,54.227 v 0 c -29.949,0 -54.227,-24.278 -54.227,-54.227 v -58.253 z"
   id="path26" />

</g>
    <path
       style="fill:#ededed"
       d="m 376.728,145.053 v 102.379 c 0,33.343 -13.511,63.53 -35.349,85.368 -21.87,21.87 -52.046,35.37 -85.389,35.37 -66.685,0 -120.738,-54.053 -120.738,-120.738 V 145.053 c 0,-5.507 0.366,-10.94 1.087,-16.248 2.215,-16.52 7.784,-31.974 15.997,-45.672 21.076,-35.234 186.243,-35.234 207.308,0 8.213,13.699 13.782,29.153 15.997,45.672 0.721,5.308 1.087,10.741 1.087,16.248 z"
       id="path30" />
    <path
       style="fill:#cccccc"
       d="M 170.231,247.433 V 145.055 c 0,-60.739 44.86,-110.987 103.251,-119.463 -5.712,-0.83 -11.549,-1.277 -17.493,-1.277 -66.681,0 -120.74,54.059 -120.74,120.74 v 102.378 c 0,66.681 54.059,120.74 120.74,120.74 5.943,0 11.78,-0.448 17.494,-1.277 C 215.091,358.42 170.231,308.172 170.231,247.433 Z"
       id="path32" />
    <g
       id="g38">
	<path
   style="fill:#393a59"
   d="m 316.094,223.664 v -23.14 c 0,-6.035 -4.892,-10.928 -10.928,-10.928 v 0 c -6.035,0 -10.928,4.892 -10.928,10.928 v 23.14 c 0,6.035 4.892,10.928 10.928,10.928 v 0 c 6.036,-0.001 10.928,-4.893 10.928,-10.928 z"
   id="path34" />

	<path
   style="fill:#393a59"
   d="m 195.892,200.523 v 23.14 c 0,6.035 4.892,10.928 10.928,10.928 v 0 c 6.035,0 10.928,-4.892 10.928,-10.928 v -23.14 c 0,-6.035 -4.892,-10.928 -10.928,-10.928 v 0 c -6.036,0.001 -10.928,4.893 -10.928,10.928 z"
   id="path36" />

</g>
    <g
       id="g48">
	<circle
   style="fill:#7f7d89"
   cx="308.95499"
   cy="204.58099"
   r="7.1399999"
   id="circle40" />

	<circle
   style="fill:#7f7d89"
   cx="210.61"
   cy="204.58099"
   r="7.1399999"
   id="circle42" />

	<circle
   style="fill:#7f7d89"
   cx="300.97198"
   cy="221.539"
   r="4.105"
   id="circle44" />

	<circle
   style="fill:#7f7d89"
   cx="202.63699"
   cy="221.539"
   r="4.105"
   id="circle46" />

</g>
    <g
       id="g54">
	<path
   style="fill:#282942"
   d="m 161.949,128.805 c 0,1.261 0.049,2.511 0.147,3.748 1.162,14.771 -4.176,29.397 -15.378,39.096 -3.501,3.032 -7.346,5.679 -11.467,7.876 v -34.471 c 0,-22.643 6.228,-43.813 17.084,-61.921 6.562,7.304 11.41,16.175 13.928,25.987 -2.768,5.986 -4.314,12.663 -4.314,19.685 z"
   id="path50" />

	<path
   style="fill:#282942"
   d="m 376.728,145.053 v 34.471 c -4.121,-2.197 -7.965,-4.844 -11.467,-7.876 -11.2,-9.699 -16.54,-24.325 -15.378,-39.096 0.097,-1.237 0.147,-2.487 0.147,-3.748 0,-7.022 -1.546,-13.699 -4.315,-19.686 2.518,-9.812 7.367,-18.683 13.928,-25.987 10.857,18.109 17.085,39.279 17.085,61.922 z"
   id="path52" />

</g>
    <g
       id="g60">
	
		<rect
   x="182.185"
   y="176.161"
   transform="matrix(-0.9327,-0.3606,0.3606,-0.9327,329.4594,440.9586)"
   style="fill:#ededed"
   width="47.363998"
   height="27.167"
   id="rect56" />

	
		<rect
   x="282.448"
   y="176.17101"
   transform="matrix(0.9327,-0.3606,0.3606,0.9327,-47.8298,123.1597)"
   style="fill:#ededed"
   width="47.363998"
   height="27.167"
   id="rect58" />

</g>
    <path
       style="fill:#393a59"
       d="m 313.114,257.672 c 0,19.498 -9.77,36.718 -24.691,47.02 -9.216,6.374 -20.386,10.104 -32.434,10.104 -12.048,0 -23.218,-3.73 -32.434,-10.104 -14.921,-10.303 -24.691,-27.523 -24.691,-47.02 5.287,2.644 10.721,4.901 16.248,6.771 5.789,1.954 11.682,3.49 17.627,4.587 7.68,1.421 15.464,2.132 23.249,2.132 7.784,0 15.569,-0.711 23.249,-2.132 5.945,-1.097 11.839,-2.633 17.627,-4.587 5.529,-1.871 10.963,-4.128 16.25,-6.771 z"
       id="path62" />
    <path
       style="fill:#e87bc2"
       d="m 288.423,304.692 c -9.216,6.374 -20.386,10.104 -32.434,10.104 -12.048,0 -23.218,-3.73 -32.434,-10.104 9.216,-6.374 20.386,-10.104 32.434,-10.104 12.048,0 23.218,3.73 32.434,10.104 z"
       id="path64" />
    <path
       style="fill:#cccccc"
       d="M 323.306,169.904 H 188.673 l 37.765,28.32 h 4.165 c 7.278,0 13.178,5.899 13.178,13.178 v 20.435 c 0,6.725 5.261,12.493 11.984,12.616 6.849,0.125 12.442,-5.39 12.442,-12.211 v -20.84 c 0,-7.278 5.9,-13.178 13.178,-13.178 h 4.157 z"
       id="path66" />
    <g
       id="g72">
	<path
   style="fill:#f0f0f0"
   d="m 296.866,264.443 c -0.627,4.807 -1.714,9.352 -2.905,13.333 -2.675,8.944 -5.925,15.078 -5.925,15.078 l -5.611,-15.193 -3.187,-8.631 c 5.946,-1.097 11.839,-2.633 17.628,-4.587 z"
   id="path68" />

	<path
   style="fill:#f0f0f0"
   d="m 232.741,269.03 -3.187,8.631 -5.611,15.193 c 0,0 -3.25,-6.134 -5.925,-15.078 -1.191,-3.981 -2.278,-8.526 -2.905,-13.333 5.789,1.954 11.682,3.49 17.628,4.587 z"
   id="path70" />

</g>
    <g
       id="g78">
	<path
   style="fill:#393a59"
   d="m 169.618,177.742 10.334,-16.078 c 1.844,-2.869 5.666,-3.701 8.536,-1.857 l 42.28,27.176 c 5.771,3.709 2.098,12.656 -4.615,11.24 l -52.614,-11.098 c -4.231,-0.892 -6.259,-5.744 -3.921,-9.383 z"
   id="path74" />

	<path
   style="fill:#393a59"
   d="m 342.361,177.742 -10.334,-16.078 c -1.844,-2.869 -5.666,-3.701 -8.536,-1.857 l -42.28,27.176 c -5.771,3.709 -2.098,12.656 4.614,11.24 l 52.614,-11.098 c 4.232,-0.892 6.26,-5.744 3.922,-9.383 z"
   id="path76" />

</g>
    <path
       style="fill:#cccccc"
       d="m 269.225,335.694 h -26.47 c -2.693,0 -4.877,-2.183 -4.877,-4.877 v 0 c 0,-2.693 2.183,-4.877 4.877,-4.877 h 26.47 c 2.693,0 4.877,2.183 4.877,4.877 v 0 c -10e-4,2.695 -2.184,4.877 -4.877,4.877 z"
       id="path80" />
    <g
       id="g86">
	<path
   style="fill:#282942"
   d="M 359.643,83.132 C 338.578,47.898 300.042,24.315 255.989,24.315 c -44.042,0 -82.578,23.583 -103.654,58.817 -8.213,13.699 -13.782,29.153 -15.997,45.672 h 25.61 c 0,-25.966 21.055,-47.02 47.02,-47.02 0.631,0 1.26,0.013 1.885,0.038 22.046,0.87 39.219,19.546 39.219,41.61 v 6.424 c 0,3.267 2.649,5.916 5.916,5.916 v 0 c 3.267,0 5.916,-2.649 5.916,-5.916 v -6.424 c 0,-22.064 17.173,-40.74 39.219,-41.61 0.625,-0.025 1.254,-0.038 1.885,-0.038 25.966,0 47.02,21.055 47.02,47.02 h 25.61 c -2.212,-16.519 -7.782,-31.973 -15.995,-45.672 z"
   id="path82" />

	<path
   style="fill:#282942"
   d="m 255.99,448.637 c 0,0 -177.292,-128.708 -170.921,-140.293 9.517,-17.313 23.649,-29.124 37.607,-37.138 -14.271,15.792 -27.977,39.815 -6.892,60.89 3.406,3.406 7.154,5.713 11.146,7.101 13.939,4.847 26.906,12.126 37.591,22.305 z"
   id="path84" />

</g>
    <g
       id="g94">
	<path
   style="fill:#e87bc2"
   d="m 298.436,441.095 -39.554,14.658 c -1.863,0.691 -3.912,0.691 -5.775,0 l -39.554,-14.658 c -5.427,-2.011 -11.197,2.004 -11.197,7.792 v 24.39 c 0,5.788 5.77,9.803 11.197,7.792 l 39.554,-14.658 c 1.863,-0.691 3.912,-0.691 5.775,0 l 39.554,14.658 c 5.427,2.011 11.197,-2.004 11.197,-7.792 v -24.39 c 0,-5.788 -5.769,-9.803 -11.197,-7.792 z"
   id="path88" />

	<path
   style="fill:#e87bc2"
   d="m 293.961,277.776 c -2.675,8.944 -5.925,15.078 -5.925,15.078 l -5.611,-15.193 c 1.745,-0.648 3.636,-1.003 5.611,-1.003 2.09,0 4.086,0.397 5.925,1.118 z"
   id="path90" />

	<path
   style="fill:#e87bc2"
   d="m 229.554,277.661 -5.611,15.193 c 0,0 -3.25,-6.134 -5.925,-15.078 1.839,-0.721 3.835,-1.118 5.925,-1.118 1.974,0 3.866,0.355 5.611,1.003 z"
   id="path92" />

</g>
    <g
       id="g96">
</g>
    <g
       id="g98">
</g>
    <g
       id="g100">
</g>
    <g
       id="g102">
</g>
    <g
       id="g104">
</g>
    <g
       id="g106">
</g>
    <g
       id="g108">
</g>
    <g
       id="g110">
</g>
    <g
       id="g112">
</g>
    <g
       id="g114">
</g>
    <g
       id="g116">
</g>
    <g
       id="g118">
</g>
    <g
       id="g120">
</g>
    <g
       id="g122">
</g>
    <g
       id="g124">
</g>
  </g>
</svg>
